# xmcd
#
# Track frame offsets: 
#        150
#        9274
#        17087
#        28739
#        39341
#        49606
#        60341
#        72608
#        84397
#        99451
#        110523
#        120285
#        132537
#        142457
#        154582
#        165407
#        177489
#        186683
#        196017
#        208552
#        221274
#        232953
#        244157
#        256297
#        268469
#        280226
#        290283
#        302185
#        312040
#
# Disc length: 4316 seconds
#
# Revision: 0
# Processed by: cddbd v1.5.1PL2 Copyright (c) Steve Scherf et al.
# Submitted via: ExactAudioCopy v0.95a5
#
DISCID=a110da1d
DTITLE=The Rockin' Berries - Ther're In Town (The Best)
DYEAR=1900
DGENRE=
TTITLE0=I Didn't Mean To Hurt You
TTITLE1=You'd Better Come Home
TTITLE2=He's It Town
TTITLE3=What In The World's Come Over You
TTITLE4=You Don't Know What You Do
TTITLE5=Let's Try Again
TTITLE6=Without Your Love
TTITLE7=All I Want Is My Baby
TTITLE8=Lonely Avenue
TTITLE9=Shades Of Blue
TTITLE10=Follow Me
TTITLE11=Ain't Thet Lovin' You Baby
TTITLE12=Funny How Love Can Be
TTITLE13=Poor Man's Son
TTITLE14=You're My Girl
TTITLE15=From One Who Knows
TTITLE16=What Can I Do
TTITLE17=Across The Street
TTITLE18=The Water Is Over My Head
TTITLE19=Happy To Blue
TTITLE20=Midnight Mary
TTITLE21=Sometimes
TTITLE22=Needs To Be
TTITLE23=Smile
TTITLE24=Dawn (Go Away)
TTITLE25=She's Not Loke Any Girl
TTITLE26=When I Reach The Top
TTITLE27=Pain
TTITLE28=Mr. Blue
EXTD=
EXTT0=
EXTT1=
EXTT2=
EXTT3=
EXTT4=
EXTT5=
EXTT6=
EXTT7=
EXTT8=
EXTT9=
EXTT10=
EXTT11=
EXTT12=
EXTT13=
EXTT14=
EXTT15=
EXTT16=
EXTT17=
EXTT18=
EXTT19=
EXTT20=
EXTT21=
EXTT22=
EXTT23=
EXTT24=
EXTT25=
EXTT26=
EXTT27=
EXTT28=
PLAYORDER=
